PathFileType	4	(X/Y/Z)	Run_200 02
DataRate	CameraRate	NumFrames	NumMarkers	Units	OrigDataRate	OrigDataStartFrame	OrigNumFrames
100	100	6	42	mm	100	44	128
Frame#	Time	LASI			RASI			LPSI			RPSI			RTH1			RTH2			RTH3			LTH1			LTH2			LTH3			RTB1			RTB2			RTB3			LTB1			LTB2			LTB3			RCAL			RTOE			RMT5			LCAL			LTOE			LMT5			LACR			RACR			CLAV			C7			RUA1			RUA2			RUA3			RLEL			RMEL			LUA1			LUA2			LUA3			LLEL			LMEL			RFAsuperior			RFAradius			RFAulna			LFAsuperior			LFAradius			LFAulna			
		X1	Y1	Z1	X2	Y2	Z2	X3	Y3	Z3	X4	Y4	Z4	X5	Y5	Z5	X6	Y6	Z6	X7	Y7	Z7	X8	Y8	Z8	X9	Y9	Z9	X10	Y10	Z10	X11	Y11	Z11	X12	Y12	Z12	X13	Y13	Z13	X14	Y14	Z14	X15	Y15	Z15	X16	Y16	Z16	X17	Y17	Z17	X18	Y18	Z18	X19	Y19	Z19	X20	Y20	Z20	X21	Y21	Z21	X22	Y22	Z22	X23	Y23	Z23	X24	Y24	Z24	X25	Y25	Z25	X26	Y26	Z26	X27	Y27	Z27	X28	Y28	Z28	X29	Y29	Z29	X30	Y30	Z30	X31	Y31	Z31	X32	Y32	Z32	X33	Y33	Z33	X34	Y34	Z34	X35	Y35	Z35	X36	Y36	Z36	X37	Y37	Z37	X38	Y38	Z38	X39	Y39	Z39	X40	Y40	Z40	X41	Y41	Z41	X42	Y42	Z42	

28	1.68	717.061137	1047.211461	-438.614427	714.434717	1028.727825	-174.471153	546.4182970000001	1061.903953	-365.112425	542.895969	1060.476448	-264.699906	589.289582	851.403173	-136.701358	649.504559	737.774388	-155.242221	549.54048	634.626632	-180.563112	698.32616	853.649128	-480.705079	812.852241	760.314739	-461.433457	803.680788	635.817176	-441.561883	532.8445829999999	383.174977	-256.772569	483.956457	340.931608	-194.147546	444.353197	239.576165	-260.641621	833.639901	409.263076	-369.632669	760.692562	346.583942	-433.95993	770.627443	265.732161	-369.146351	281.94913	162.957565	-271.188104	483.943412	64.816738	-280.756863	429.091378	62.67442	-192.91343	617.627551	167.517854	-358.430086	832.149856	88.18465500000001	-350.741924	776.32536	82.409403	-437.988439	693.803961	1509.382603	-487.675523	723.722504	1526.279534	-157.591853	764.165612	1453.183718	-296.58205	645.9438290000001	1534.616151	-316.468012	682.755243	1453.469352	-67.265562	614.204027	1381.016728	-72.71015300000001	655.337933	1333.315554	-25.558296	630.142193	1232.095895	15.281592	598.672209	1212.145398	-57.76523	613.809451	1449.67505	-554.583981	545.827961	1394.123941	-509.061574	515.24323	1339.180516	-566.224068	477.297592	1262.479168	-589.322821	466.691486	1259.619503	-513.18732	734.454607	1206.6946	3.298946	873.450283	1174.154367	-62.982531	849.661889	1109.687721	-41.242515	559.873149	1187.633607	-594.98439	677.955461	1086.49485	-535.346721	628.750805	1043.72599	-565.913562	
29	1.69	718.894327	1053.08356	-438.586442	716.145183	1033.315833	-175.402483	549.125063	1067.858362	-365.899353	545.042299	1065.979872	-265.428813	587.243307	857.112163	-137.278252	644.985169	742.367492	-154.786843	542.362804	641.61189	-179.650279	699.153899	859.35087	-480.875956	812.822905	765.325946	-461.084122	800.6369120000001	639.9674199999999	-440.190477	521.547739	389.815239	-254.42454	471.285665	348.54963	-191.909197	432.033284	246.42379	-258.148117	839.532874	411.298371	-369.469219	773.685927	341.737405	-434.398312	789.12549	262.637757	-367.985366	270.01757	173.658226	-269.656923	465.385983	63.753631	-280.617255	411.386347	64.30457699999999	-191.631866	645.427649	151.465373	-357.615227	865.999315	91.083507	-347.481062	811.909819	80.26066899999999	-435.251126	694.035207	1514.882617	-488.322796	725.326228	1531.300496	-159.087236	764.857763	1458.448978	-298.088879	646.721713	1539.266907	-316.981569	684.947445	1459.189463	-68.246511	616.37382	1387.468835	-72.42108399999999	657.6599189999999	1339.482962	-25.74058	632.183304	1238.543941	15.661924	600.175474	1218.282534	-57.276394	613.161312	1457.789336	-555.255719	545.341671	1403.751213	-508.832127	512.3017129999999	1349.148875	-565.393281	472.154632	1273.311281	-587.82553	463.276297	1270.67249	-511.260782	736.542151	1214.493576	3.115081	875.418062	1183.504662	-64.09850299999999	852.792192	1118.71688	-41.830563	553.708965	1197.565015	-595.144633	672.239106	1095.081237	-537.615688	622.068788	1052.692992	-567.110902	
30	1.7	720.777495	1058.391423	-438.555604	718.260788	1037.700437	-176.192699	551.422615	1073.185708	-366.483076	547.1990960000001	1070.793701	-266.051077	585.553369	862.425794	-137.749002	641.111855	746.7646099999999	-154.206649	536.374161	648.3236450000001	-178.94814	699.076235	863.207656	-480.810659	811.9323439999999	768.564648	-460.46689	796.495908	642.656072	-439.26032	511.766243	396.23788	-252.164254	459.852138	356.166905	-189.720425	420.819775	253.282283	-255.581757	844.181335	412.373775	-369.298327	786.127034	336.853259	-435.218592	806.431068	260.100213	-366.714707	259.025346	184.935577	-268.14665	447.302274	63.555431	-280.596857	393.984688	66.16819099999999	-190.20683	673.003685	137.009169	-357.250196	897.780485	96.093487	-343.66158	845.985014	79.440409	-432.18102	694.498465	1519.775079	-488.890114	726.860301	1535.640559	-160.54549	765.43828	1463.044008	-299.449341	647.560192	1543.466389	-317.479916	686.7424119999999	1464.320823	-69.246521	618.3233269999999	1393.177697	-72.442153	659.550823	1345.042568	-26.081178	633.95422	1244.30516	15.899257	601.453357	1223.732817	-56.947149	612.913707	1465.012211	-556.193849	545.494838	1412.138308	-508.477543	510.096072	1358.004992	-564.349954	468.091778	1283.021903	-586.4317140000001	461.067478	1280.628961	-509.455966	738.253546	1221.353855	2.799884	877.020516	1191.599809	-65.15851499999999	855.431207	1126.576246	-42.362875	548.886542	1206.561077	-595.088839	667.648914	1102.712563	-539.55433	616.668388	1060.654784	-568.025467	
31	1.71	722.635339	1062.871498	-438.486604	720.166623	1041.712076	-176.830714	553.535005	1077.768534	-367.01695	549.215884	1074.722194	-266.523927	584.285942	867.3580040000001	-138.057725	638.003705	750.811502	-153.549842	531.921517	654.461575	-178.541817	698.381308	865.22813	-480.482141	810.424839	769.959434	-459.581957	792.212104	643.905367	-439.316065	503.853636	402.048013	-249.996607	449.998117	363.528874	-187.691802	410.943187	260.025791	-253.06079	847.684949	412.754776	-369.344977	797.0359130000001	332.34854	-435.869018	822.097448	258.254272	-365.559548	249.059601	196.785875	-266.744066	429.90643	64.762368	-280.755075	376.930325	68.437325	-188.797023	699.467489	124.396868	-357.222258	926.484112	103.031633	-339.493025	877.810504	80.50741499999999	-428.823475	695.09042	1523.852459	-489.38478	728.225318	1539.207174	-162.012399	765.882426	1466.806053	-300.661313	648.3936169999999	1547.074159	-318.010873	688.204197	1468.747455	-70.26144600000001	619.925205	1398.026221	-72.88312500000001	660.9492770000001	1349.916208	-26.571322	635.393008	1249.279484	15.971574	602.584603	1228.390233	-56.826808	612.8929460000001	1471.180773	-557.142273	546.0639640000001	1419.12042	-507.946171	508.498311	1365.601796	-563.242474	465.057608	1291.325401	-585.2952289999999	460.05021	1289.086693	-508.029614	739.595742	1227.124406	2.371872	878.2575000000001	1198.346102	-66.164829	857.60015	1133.13627	-42.869714	545.304529	1214.283012	-595.011307	664.205055	1109.284261	-541.217589	612.596328	1067.487371	-568.77862	
32	1.72	724.434651	1066.317127	-438.374136	721.518262	1045.214493	-177.388493	555.599288	1081.40979	-367.694167	550.7525460000001	1077.768791	-266.888367	583.474246	871.7899609999999	-138.259147	635.863977	754.284392	-152.895081	529.3300840000001	659.580376	-178.38044	697.34966	865.779129	-480.255489	808.555666	769.837083	-458.813609	788.205468	643.681511	-440.485941	498.013188	406.801472	-247.946581	442.050983	370.229587	-185.911277	402.482256	266.383575	-250.721943	850.299964	412.814472	-369.828217	805.591962	328.640892	-436.092978	835.699912	257.25896	-364.852677	240.264934	208.965089	-265.470929	413.051333	66.972425	-280.797679	360.280246	71.295216	-187.562327	723.571996	113.894198	-357.228352	951.073865	111.321834	-335.354429	906.06862	83.486831	-425.363941	695.7592550000001	1526.939136	-489.851027	729.321727	1541.92807	-163.506604	766.204488	1469.605958	-301.734832	649.188224	1549.946617	-318.608025	689.396555	1472.340283	-71.32112499999999	621.078379	1401.915545	-73.776355	661.817129	1354.004923	-27.216616	636.436865	1253.382559	15.851657	603.570549	1232.160703	-56.953147	612.950958	1476.125536	-557.8421039999999	546.83367	1424.548979	-507.185469	507.360201	1371.786305	-562.190928	462.921001	1297.935997	-584.540236	459.813895	1295.63183	-507.140616	740.572589	1231.708414	1.859765	879.1151630000001	1203.685983	-67.123881	859.267802	1138.32264	-43.379154	542.816121	1220.447806	-595.098624	661.939584	1114.689656	-542.664053	609.918726	1073.031762	-569.532176	
33	1.73	726.1913029999999	1068.612016	-438.259388	722.28507	1048.105362	-177.969305	557.522951	1083.897697	-368.624139	551.611564	1080.063519	-267.221299	583.166795	875.405524	-138.405867	634.925624	756.865081	-152.400223	528.791421	663.169751	-178.31653	696.12746	865.329018	-480.617157	806.480087	768.686832	-458.647009	784.268746	642.014137	-442.533945	494.233922	410.123821	-246.088978	436.2096	375.802585	-184.41571	395.327417	272.02952	-248.68096	852.301186	412.707048	-370.611103	811.735713	325.920134	-436.117488	846.82157	257.01993	-364.618123	232.754139	221.178604	-264.27096	396.425942	69.16031	-280.096875	344.097502	74.915604	-186.623338	743.946289	105.769478	-356.85626	970.701014	119.801433	-331.817386	929.1681	87.51013399999999	-422.194122	696.504051	1528.932319	-490.367425	730.097611	1543.748735	-165.019161	766.441001	1471.374393	-302.700158	649.938588	1551.963944	-319.296044	690.3236429999999	1474.970474	-72.467095	621.751581	1404.75337	-75.06562	662.141389	1357.192868	-28.024338	637.0577019999999	1256.521292	15.541841	604.286066	1234.960412	-57.29636	613.0331200000001	1479.699378	-558.230815	547.6323180000001	1428.275787	-506.257985	506.577032	1376.388019	-561.2966750000001	461.568647	1302.63903	-584.260323	459.780217	1300.037007	-506.804042	741.182934	1235.05397	1.29982	879.580304	1207.579398	-68.02483599999999	860.386291	1142.106926	-43.899664	541.316488	1224.882582	-595.477048	660.878486	1118.835388	-543.9417570000001	608.671421	1077.143364	-570.368577	
